<svg viewBox="0 0 514.76 317.46" xmlns="http://www.w3.org/2000/svg" xmlns:xlink="http://www.w3.org/1999/xlink"><clipPath id="a" transform="translate(-152.76 -115.57)"><path d="m152.76 114.28h514.76v318.75h-514.76z"/></clipPath><path d="m37.16 266.18h477.6v51.28h-477.6z" fill="#fce2a1"/><g clip-path="url(#a)" fill="#fce2a1"><path d="m389 311.87h.27a18.23 18.23 0 0 1 1.83-3.84 16.37 16.37 0 0 1 3.39-3.89 18.07 18.07 0 0 1 11.9-4.14 20.56 20.56 0 0 1 9.38 2 19 19 0 0 1 6.59 5.4 23.38 23.38 0 0 1 3.89 7.87 34.24 34.24 0 0 1 1.28 9.42 35.64 35.64 0 0 1 -1.29 9.88 21.43 21.43 0 0 1 -3.9 7.73 18 18 0 0 1 -6.6 5.08 22.36 22.36 0 0 1 -9.4 1.83 21 21 0 0 1 -10.45-2.57 14.94 14.94 0 0 1 -6.7-8.32h-.19v29.47h-3.39v-66.7h3.39zm17.34 34.31a17 17 0 0 0 7.93-1.74 15.7 15.7 0 0 0 5.5-4.67 20.21 20.21 0 0 0 3.23-6.77 32.21 32.21 0 0 0 .05-16.2 21.65 21.65 0 0 0 -3.12-6.95 16 16 0 0 0 -5.46-4.94 16.35 16.35 0 0 0 -8.11-1.87 16.12 16.12 0 0 0 -8 1.83 15.46 15.46 0 0 0 -5.37 4.84 20.4 20.4 0 0 0 -3 6.91 35.22 35.22 0 0 0 -.92 8.1 39 39 0 0 0 .83 8.1 19.82 19.82 0 0 0 2.79 6.86 14.36 14.36 0 0 0 5.33 4.75 17.45 17.45 0 0 0 8.3 1.79" transform="translate(-152.76 -115.57)"/><path d="m283.73 185.51h3.48v47.02h-3.48z"/><path d="m486.44 315.62a13.65 13.65 0 0 0 -1.6-5.49 12.28 12.28 0 0 0 -3.43-3.93 15.47 15.47 0 0 0 -4.89-2.38 21.12 21.12 0 0 0 -6-.83 16.4 16.4 0 0 0 -7.77 1.79 17 17 0 0 0 -5.67 4.76 21.4 21.4 0 0 0 -3.48 6.77 26.1 26.1 0 0 0 -1.19 7.82 33.35 33.35 0 0 0 1.1 8.78 20 20 0 0 0 3.38 7 15.9 15.9 0 0 0 5.67 4.62 18 18 0 0 0 8 1.65 16.53 16.53 0 0 0 6.09-1.1 16.36 16.36 0 0 0 4.94-3 15.56 15.56 0 0 0 3.52-4.62 18.82 18.82 0 0 0 1.83-5.9h3.48a22 22 0 0 1 -2.29 7.5 18.41 18.41 0 0 1 -4.39 5.54 19.26 19.26 0 0 1 -6 3.43 23.39 23.39 0 0 1 -17-.87 18.86 18.86 0 0 1 -6.74-5.56 23.3 23.3 0 0 1 -3.84-8 36 36 0 0 1 -1.24-9.47 30.27 30.27 0 0 1 1.42-9.33 22.93 22.93 0 0 1 4.16-7.69 19.85 19.85 0 0 1 6.77-5.21 21.26 21.26 0 0 1 9.24-1.92 25.8 25.8 0 0 1 7.18 1 18.59 18.59 0 0 1 5.95 2.88 15.05 15.05 0 0 1 4.26 4.89 17.73 17.73 0 0 1 2 6.91z" transform="translate(-152.76 -115.57)"/><path d="m515.81 304.09h-10.25v32.85a12.86 12.86 0 0 0 .64 4.48 5.18 5.18 0 0 0 2 2.52 6.93 6.93 0 0 0 3.2 1.05 33.4 33.4 0 0 0 4.35.09v3a32.94 32.94 0 0 1 -5.17-.05 10.39 10.39 0 0 1 -4.44-1.37 8 8 0 0 1 -3.06-3.43 12.81 12.81 0 0 1 -1-6.31v-32.83h-8.68v-3h8.69v-14.65h3.47v14.64h10.25z" transform="translate(-152.76 -115.57)"/><path d="m559.44 348.1h-3.44v-10.1h-.18a15.07 15.07 0 0 1 -2.61 4.72 17.42 17.42 0 0 1 -3.94 3.52 17.14 17.14 0 0 1 -4.89 2.19 20.15 20.15 0 0 1 -5.4.74 21.39 21.39 0 0 1 -7-1 13.82 13.82 0 0 1 -4.71-2.65 12.86 12.86 0 0 1 -2.88-3.71 17.39 17.39 0 0 1 -1.51-4.16 24.93 24.93 0 0 1 -.55-4.07c-.06-1.31-.09-2.46-.09-3.43v-29.07h3.48v29.73a44.21 44.21 0 0 0 .27 4.44 13.57 13.57 0 0 0 1.6 5 11.83 11.83 0 0 0 4 4.16q2.65 1.74 7.5 1.74a16.56 16.56 0 0 0 7.09-1.47 15.28 15.28 0 0 0 5.36-4.07 18.12 18.12 0 0 0 3.34-6.22 26.2 26.2 0 0 0 1.14-7.91v-25.4h3.47z" transform="translate(-152.76 -115.57)"/><path d="m573.17 311.5h.27a11.6 11.6 0 0 1 2.34-4.3 16.21 16.21 0 0 1 4.11-3.47 20.34 20.34 0 0 1 5.4-2.24 21.77 21.77 0 0 1 6.17-.69v3.48a16.31 16.31 0 0 0 -6.26.55 15.17 15.17 0 0 0 -6.73 4c-.85.92-1.6 1.8-2.24 2.65a13.1 13.1 0 0 0 -1.6 2.84 17.58 17.58 0 0 0 -1 3.48 29.4 29.4 0 0 0 -.46 4.57v25.73h-3.48v-47h3.48z" transform="translate(-152.76 -115.57)"/><path d="m595.31 325v.55a27.56 27.56 0 0 0 1.1 7.87 20.21 20.21 0 0 0 3.25 6.59 15.46 15.46 0 0 0 5.42 4.48 16.51 16.51 0 0 0 7.56 1.65q7.07 0 11.2-3.71a19.39 19.39 0 0 0 5.68-10.29h3.48q-1.56 8.24-6.73 12.62t-13.67 4.4a20.79 20.79 0 0 1 -9.11-1.88 18.59 18.59 0 0 1 -6.49-5.08 21.71 21.71 0 0 1 -3.89-7.69 34.47 34.47 0 0 1 -1.28-9.56 33.34 33.34 0 0 1 1.33-9.47 23.72 23.72 0 0 1 4-8 19.82 19.82 0 0 1 6.63-5.49 20.18 20.18 0 0 1 9.38-2 19.87 19.87 0 0 1 8.73 1.83 18.37 18.37 0 0 1 6.36 5 22.16 22.16 0 0 1 3.89 7.32 29.38 29.38 0 0 1 1.33 8.92c0 .31 0 .66-.05 1.05s0 .72 0 1zm34.58-3a27.75 27.75 0 0 0 -1.29-7.27 18 18 0 0 0 -3.25-6 16.22 16.22 0 0 0 -5.23-4.16 15.3 15.3 0 0 0 -7-1.55 16.41 16.41 0 0 0 -7.43 1.6 16.81 16.81 0 0 0 -5.41 4.2 18.64 18.64 0 0 0 -3.39 6.09 28.18 28.18 0 0 0 -1.49 7.09z" transform="translate(-152.76 -115.57)"/></g><g clip-path="url(#a)"><text fill="#fce2a1" font-family="HelveticaNeue-Thin, Helvetica Neue" font-size="87.86" font-weight="200" transform="translate(121.98 75.29)">the</text></g><g fill="#fce2a1"><path d="m42.88 110.45h-6.01v-84.12h53.59v6.01h-47.58z"/><path d="m146.28 232.07h-108.54v-27.42h6v21.42h102.54z"/><path d="m508.73 196.99v29.08h-14.45v6h20.46v-35.08z"/><path d="m364.33 27.21v6h144.4v164.69h6.01v-170.69z"/></g><g clip-path="url(#a)"><path d="m441 294.46a2.73 2.73 0 1 1 -2.73-2.73 2.72 2.72 0 0 1 2.73 2.73" fill="#fce2a1" transform="translate(-152.76 -115.57)"/><g fill="#282564"><path d="m233.61 416.72v-11.8h-4.56v-2.78a8.62 8.62 0 0 0 1.85-.14 4.63 4.63 0 0 0 1.61-.6 3.81 3.81 0 0 0 1.2-1.13 4 4 0 0 0 .65-1.74h2.93v18.19z" transform="translate(-152.76 -115.57)"/><path d="m257 403.09a8.11 8.11 0 0 1 1.43-2.9 5.14 5.14 0 0 1 2.12-1.56 7 7 0 0 1 2.55-.47 7.08 7.08 0 0 1 2.58.47 5.2 5.2 0 0 1 2.12 1.56 8 8 0 0 1 1.46 2.9 16.21 16.21 0 0 1 .53 4.46 16.79 16.79 0 0 1 -.53 4.56 7.83 7.83 0 0 1 -1.46 2.92 5.2 5.2 0 0 1 -2.12 1.56 6.88 6.88 0 0 1 -2.58.47 6.8 6.8 0 0 1 -2.55-.47 5.14 5.14 0 0 1 -2.12-1.56 8 8 0 0 1 -1.43-2.92 16.37 16.37 0 0 1 -.54-4.56 15.81 15.81 0 0 1 .54-4.46m3.2 6.34a9.86 9.86 0 0 0 .32 2.13 4.54 4.54 0 0 0 .87 1.76 2.11 2.11 0 0 0 1.71.73 2.18 2.18 0 0 0 1.75-.73 4.42 4.42 0 0 0 .88-1.76 10.52 10.52 0 0 0 .33-2.13c0-.73.05-1.36.05-1.88 0-.31 0-.69 0-1.13a13.2 13.2 0 0 0 -.1-1.37 13.57 13.57 0 0 0 -.26-1.39 4.23 4.23 0 0 0 -.5-1.23 2.82 2.82 0 0 0 -.86-.89 2.33 2.33 0 0 0 -1.27-.33 2.27 2.27 0 0 0 -1.26.33 2.84 2.84 0 0 0 -.83.89 4.87 4.87 0 0 0 -.5 1.23 9.7 9.7 0 0 0 -.26 1.39c0 .47-.08.93-.09 1.37s0 .82 0 1.13c0 .52 0 1.15.06 1.88" transform="translate(-152.76 -115.57)"/><path d="m153.2 282.6h4.56l4.33 7.33 4.3-7.33h4.54l-6.87 11.43v7.12h-4.07v-7.22z"/><path d="m200.66 282.6v3.43h-9.77v3.97h8.97v3.18h-8.97v4.54h9.98v3.43h-14.05v-18.55z"/><path d="m379.94 398.16 6.92 18.56h-4.22l-1.4-4.13h-6.92l-1.45 4.13h-4.1l7-18.56zm.24 11.39-2.34-6.81-2.41 6.81z" transform="translate(-152.76 -115.57)"/><path d="m412.79 398.16a5.92 5.92 0 0 1 2.24.41 5.24 5.24 0 0 1 1.71 1.1 4.86 4.86 0 0 1 1.09 1.63 5.22 5.22 0 0 1 .37 2 5.67 5.67 0 0 1 -.68 2.83 4.34 4.34 0 0 1 -2.25 1.82v.05a3.08 3.08 0 0 1 1.25.64 3.44 3.44 0 0 1 .8 1 4.81 4.81 0 0 1 .46 1.29 11.2 11.2 0 0 1 .19 1.4v1s.05.81.09 1.22a8.26 8.26 0 0 0 .21 1.18 2.6 2.6 0 0 0 .43 1h-4.07a7 7 0 0 1 -.42-2.1c-.05-.82-.13-1.6-.23-2.34a3.69 3.69 0 0 0 -.88-2.13 3 3 0 0 0 -2.2-.68h-4.08v7.25h-4.02v-18.57zm-1.46 8.4a3.08 3.08 0 0 0 2.1-.62 2.6 2.6 0 0 0 .7-2 2.45 2.45 0 0 0 -.7-2 3.08 3.08 0 0 0 -2.1-.61h-4.46v5.22z" transform="translate(-152.76 -115.57)"/><path d="m439 412.15a2.94 2.94 0 0 0 .89 1.05 3.84 3.84 0 0 0 1.31.6 6.17 6.17 0 0 0 1.56.19 8.07 8.07 0 0 0 1.16-.09 3.79 3.79 0 0 0 1.17-.35 2.64 2.64 0 0 0 .91-.71 1.83 1.83 0 0 0 .36-1.16 1.63 1.63 0 0 0 -.48-1.22 3.87 3.87 0 0 0 -1.26-.78 12.65 12.65 0 0 0 -1.76-.55c-.66-.15-1.32-.33-2-.52a17.51 17.51 0 0 1 -2-.63 6.83 6.83 0 0 1 -1.76-1 4.35 4.35 0 0 1 -1.74-3.66 5 5 0 0 1 .61-2.49 5.58 5.58 0 0 1 1.6-1.75 7 7 0 0 1 2.22-1 9.7 9.7 0 0 1 2.49-.34 11.59 11.59 0 0 1 2.79.33 6.89 6.89 0 0 1 2.37 1.05 5.38 5.38 0 0 1 1.56 1.88 5.78 5.78 0 0 1 .61 2.74h-3.94a3.41 3.41 0 0 0 -.35-1.38 2.32 2.32 0 0 0 -.79-.85 3.43 3.43 0 0 0 -1.13-.45 7.46 7.46 0 0 0 -1.39-.13 4.67 4.67 0 0 0 -1 .11 2.74 2.74 0 0 0 -.9.36 2.27 2.27 0 0 0 -.66.65 1.78 1.78 0 0 0 -.26 1 1.64 1.64 0 0 0 .21.88 1.82 1.82 0 0 0 .82.63 10.06 10.06 0 0 0 1.68.57l2.81.73c.35.07.83.19 1.44.37a7.26 7.26 0 0 1 1.83.87 5.71 5.71 0 0 1 1.57 1.6 4.57 4.57 0 0 1 .66 2.56 5.68 5.68 0 0 1 -.49 2.37 5.13 5.13 0 0 1 -1.47 1.88 7.12 7.12 0 0 1 -2.41 1.24 11.53 11.53 0 0 1 -3.33.44 11.74 11.74 0 0 1 -3-.38 7.41 7.41 0 0 1 -2.54-1.18 5.89 5.89 0 0 1 -1.75-2.05 6.17 6.17 0 0 1 -.62-3h3.94a3.34 3.34 0 0 0 .34 1.59" transform="translate(-152.76 -115.57)"/><path d="m339.86 282.6v15.12h9.02v3.43h-13.09v-18.55z"/><path d="m527.49 398.16 6.92 18.56h-4.22l-1.4-4.13h-6.92l-1.46 4.13h-4.09l7-18.56zm.23 11.39-2.33-6.81-2.41 6.81z" transform="translate(-152.76 -115.57)"/><path d="m396.14 286.03v-3.43h15.16v3.43h-5.55v15.12h-4.06v-15.12z"/><path d="m441.61 282.6v3.43h-9.78v3.97h8.97v3.18h-8.97v4.54h9.98v3.43h-14.05v-18.55z"/><path d="m621.64 398.16a5.88 5.88 0 0 1 2.24.41 5 5 0 0 1 1.71 1.1 4.72 4.72 0 0 1 1.09 1.63 5.22 5.22 0 0 1 .38 2 5.57 5.57 0 0 1 -.69 2.83 4.35 4.35 0 0 1 -2.24 1.82v.05a3.11 3.11 0 0 1 1.24.64 3.47 3.47 0 0 1 .81 1 5.17 5.17 0 0 1 .45 1.29 11.2 11.2 0 0 1 .19 1.4v1s0 .81.1 1.22a8.29 8.29 0 0 0 .2 1.18 2.77 2.77 0 0 0 .43 1h-4.07a7.31 7.31 0 0 1 -.41-2.1c-.06-.82-.13-1.6-.24-2.34a3.69 3.69 0 0 0 -.88-2.13 3 3 0 0 0 -2.2-.68h-4.07v7.25h-4.07v-18.57zm-1.45 8.4a3.12 3.12 0 0 0 2.1-.62 2.64 2.64 0 0 0 .7-2 2.49 2.49 0 0 0 -.7-2 3.12 3.12 0 0 0 -2.1-.61h-4.46v5.22z" transform="translate(-152.76 -115.57)"/></g><path d="m215.83 238.57c-1.75 1.52-2.84 2.61-3.5 2s.88-2.18 3.06-4.15l14.84-13.75 19.85-18.1c2.4-2.19 5.46-4.37 8.51-4.37 4.8 0 3.49 1.09-.22 5.46-12.87 15-34.91 43.64-56.07 72.22-19.21 26-24.44 33.17-39.06 56.08-1.75 2.83-1.75 3.93-1.31 4.36.65.66 1.74 0 2.84-1.31 2.83-3.27 10.69-14.62 17-23.56 4.58-6.55 14.62-19.86 25.09-33.82 9-11.78 18.11-23.57 26.4-33.39 5.67-6.54 13.31-14.18 19.2-18.54s13.1-8.51 18.76-8.51c4.81 0 7 2.18 6.55 5.67-.44 3.71-5 8.51-9 13.09a81.86 81.86 0 0 0 -7.63 9.38c-1.74 2.84-1.53 4.37-.65 5 1.09.88 3.27.65 5.88-.65a63.69 63.69 0 0 0 10.05-6.55c3.92-3.05 7.2-5.89 10-8.51 1.09-1.09 2.62-2.4 3.28-1.74s-1.1 2.18-1.75 2.83a166.08 166.08 0 0 1 -13.21 11.29c-4.58 3.49-12.22 8.73-19.64 8.73-5.45 0-7.42-3.06-7-6.33.65-4.58 5.67-10.26 9.6-14.62 3.49-3.93 7.86-8.73 9.38-10.91.88-1.31.88-2.4 0-2.84s-3.06.22-4.8 1.09c-7 3.5-14.18 9-22.69 18.12-6.77 7.41-20.08 24-31.64 39.49-9.6 12.87-19.86 26.4-26.4 36-7 10.26-14.84 21.39-18.77 24.66-1.74 1.53-4.14 2.62-6.32 2.18a4.32 4.32 0 0 1 -3.72-4.58c0-5 3.93-11.78 8.3-18.33 8.07-12.22 14.83-21.82 30.54-43 10.48-14.41 34.92-46.26 46.05-60z" fill="#fce2a1" transform="translate(-152.76 -115.57)"/><path d="m319.69 247.08a140.09 140.09 0 0 0 13.31-10.48c1.3-1.09 2-1.31 2.4-.87.43.65-.44 1.52-1.75 2.84a153.27 153.27 0 0 1 -13.75 10.91c-9.16 6.1-17.23 8.94-24.65 8.94-8.08 0-11.79-3.05-11.57-8.73.22-4.36 2.18-8.29 6.55-13.52l-.23-.17-4.36 3.93c-1.09.87-1.75 1.08-2.19.65-.43-.65.44-1.53 1.31-2.4a80.57 80.57 0 0 1 8.08-6.55 96.38 96.38 0 0 1 10.71-6.63c6.33-3.28 12.87-6.11 18.76-6.11 5 0 6.77 3 6.55 5.89-.44 5.67-7.42 10-14 13.31a113.12 113.12 0 0 1 -18.76 7 12.31 12.31 0 0 0 -1.31 5c0 3.27 1.75 5 5 5 2.84 0 10.25-1.53 19.85-8.07m-7.41-10.91c5.45-3.71 8.73-8.3 8.94-11.35.22-2-.65-3.06-2.61-3.06s-5.24 2.19-9.61 6.33a85.87 85.87 0 0 0 -11.56 14.62 51.75 51.75 0 0 0 14.84-6.54" fill="#fce2a1" transform="translate(-152.76 -115.57)"/><path d="m360.72 238.13a60.55 60.55 0 0 0 -7.42 10.26c-1.09 2-1.09 3.48-.22 4.14s2.4.44 4.8-.87a68.79 68.79 0 0 0 9.82-6.55c4.8-3.71 7.42-5.89 10.26-8.51 1.53-1.53 2.83-2.18 3.27-1.74.66.65-.87 2-2.62 3.71-2.61 2.4-7 6.32-12.43 10.47-4.59 3.49-12.22 8.73-19.42 8.73-4.59 0-7-2.4-6.77-5.68.22-4.8 5.67-10.91 10.48-15.49 5.23-5 13.52-10.91 14.18-12.44.87-2.4-3.27-1.74-8.73-1.74a15.59 15.59 0 0 1 -5-.44c-1.74 2-4.8 5-8.29 8.29l-8.73 8.08c-2 1.74-2.83 2.18-3.27 1.74s.22-1.52 2.4-3.49l8.51-7.85c3.05-2.84 5.89-5.68 7.64-7.64-2-1.31-2.19-4.36 0-7a10.64 10.64 0 0 1 8.29-3.71c1.74 0 3.71.87 3.93 2.18a25.52 25.52 0 0 0 -3.71 3.05c-2.84 3.06-2.19 4.59.65 4.81 6.11.21 12.44.43 12.44 4.36 0 3.27-5.24 7.63-10 13.31" fill="#fce2a1" transform="translate(-152.76 -115.57)"/><path d="m494.92 140.16c-1.75 10.47-22.69 27.71-44.73 46-13.1 10.91-30.33 24-43.21 35.56-11.34 14-17.89 22.7-25.75 33.82a56.89 56.89 0 0 0 9.39-3.05 83 83 0 0 0 12.22-6.33 98.88 98.88 0 0 0 12.43-9.6c.88-.87 2.84-2.62 3.5-2s-1.31 2.4-2 3.05a94.17 94.17 0 0 1 -14.18 11.13 104.82 104.82 0 0 1 -17.24 8.08c-2.4.87-4.36 2-5.45 3.49-1.53 2.18-2 3.49-3.06 7a222 222 0 0 1 -18.32 41.45c-7 12.22-16.59 25.75-25.32 32.3-3.27 2.62-6.55 3.93-9.38 3.49s-4.58-3.05-3.49-8.29c2.4-11.78 17-37.1 32.51-58.26 11.13-15.28 25.53-34 38.4-50.4l-.22-.22c-2.61 2-7.63 6.54-11.56 10.25-1.31 1.09-2 1.31-2.4.88s0-1.09 1.31-2.4c5.23-5 12.87-11.35 17.67-15.06l24.22-29.89c16.8-19.64 39.28-42.34 50.41-50.41 5.45-3.93 11.78-8.51 17.89-8.51 5.24 0 7 3.71 6.33 7.86m-146 160.16c-7.2 10.91-17.46 26.62-20.95 34.69-1.31 2.84-1.08 4.58 0 5.24 1.32.65 2.84 0 5.46-2 5.68-4.36 14.62-15.49 23.78-31.42 8.29-14.18 16.37-35.57 19.2-44.95-14 17.89-15.48 20.51-27.49 38.41m99.5-116.52c20.95-18.77 40.37-35.57 41.24-45.17.22-2.62-1.09-3.93-3.49-3.93-3.49 0-8.73 4.37-13.53 8.73-7.2 6.76-17 17.46-28.36 31-16.15 19-21.61 26.19-33.39 41.68 20.51-17.89 27.71-23.56 37.53-32.29" fill="#fce2a1" transform="translate(-152.76 -115.57)"/><path d="m448.44 247.08a138.75 138.75 0 0 0 13.31-10.48c1.31-1.09 2-1.31 2.4-.87.44.65-.43 1.52-1.74 2.84a153.27 153.27 0 0 1 -13.75 10.91c-9.16 6.1-17.24 8.94-24.66 8.94-8.07 0-11.78-3.05-11.56-8.73.22-4.36 2.18-8.29 6.54-13.52l-.21-.22-4.37 3.93c-1.09.87-1.74 1.08-2.18.65-.44-.65.44-1.53 1.31-2.4a81.57 81.57 0 0 1 8.07-6.55 96.64 96.64 0 0 1 10.7-6.58c6.32-3.28 12.87-6.11 18.76-6.11 5 0 6.77 3 6.55 5.89-.44 5.67-7.42 10-14 13.31a113.45 113.45 0 0 1 -18.76 7 12.15 12.15 0 0 0 -1.31 5c0 3.27 1.74 5 5 5 2.83 0 10.26-1.53 19.85-8.07m-7.39-10.85c5.46-3.71 8.73-8.3 9-11.35.22-2-.65-3.06-2.62-3.06s-5.24 2.19-9.6 6.33a85.38 85.38 0 0 0 -11.56 14.62 51.58 51.58 0 0 0 14.78-6.54" fill="#fce2a1" transform="translate(-152.76 -115.57)"/><path d="m459.14 249.26c.43-4.37 2.83-8.95 6.32-13.09l-.21-.22-3.71 3.27c-1.31 1.09-2.4 1.75-2.84 1.31-.44-.65.44-1.53 1.31-2.4a81.57 81.57 0 0 1 8.07-6.55 99.89 99.89 0 0 1 10.48-6.58c7.42-3.93 14.4-6.77 20.07-5.89 5 .87 6.77 4.14 5.89 8.29s-4.58 7.42-7.42 7.42c-3.71 0-3.71-3.06-1.74-6.33 2.4-4.15 3.27-6.77.65-7.2-2.4-.44-7.42 2.83-13.53 9.16-5.89 5.89-11.56 14.19-12.21 19.42-.44 3.28 1.53 5 5 5 2.84 0 10.48-1.31 20.08-7.85a164.44 164.44 0 0 0 13.09-10.48c1.31-1.09 2-1.31 2.4-.87.44.65-.44 1.52-1.74 2.84a135 135 0 0 1 -12.87 10.49c-7.64 5.23-17.89 9.38-25.53 9.38-8.07 0-12-3.27-11.56-9.16" fill="#fce2a1" transform="translate(-152.76 -115.57)"/><path d="m509.77 237.91c-1.54 1.31-2.19 1.53-2.63 1.09s0-1.31 1.53-2.62l15.93-14.18c-2.84 0-5.24.22-7.86.22-1.52 0-2.61 0-2.4-1.09.22-.87 2.4-1.09 5.9-1.31 2.83-.22 5.23-.22 6.11-.22a297.09 297.09 0 0 1 20.51-22.7c3.92-3.92 9.16-8.94 13.74-8.94 2.19 0 3.06.66 3.28 1.31-2.62 2.4-8.3 8.51-13.31 14.18s-9 10.47-13.31 16.15c5-.22 9-.22 12.43-.22 1.75 0 3.28.22 3.06 1.31-.22 1.31-2.18 1.09-3.93 1.09-4.8 0-8.29 0-13.31.22a164.32 164.32 0 0 0 -15.71 24c-1.31 2.4-2 5.46-.21 6.33 1.3.66 3.7 0 5.45-.87a59.16 59.16 0 0 0 9.82-6.55c3.92-3.06 7.63-6.33 10.25-8.73 1.1-.87 2.41-2.18 3.06-1.52.43.43 0 1.09-1.53 2.62a169.19 169.19 0 0 1 -13.31 11.52c-3.93 3.05-11.78 9-20.07 9-5 0-6.77-2.84-6.55-6.12.43-5.45 5.45-13.3 11.78-21.6-3.49 2.84-6.11 5.24-8.72 7.64" fill="#fce2a1" transform="translate(-152.76 -115.57)"/></g></svg>